<?xml version="1.0" encoding="UTF-8" standalone="no"?>
<!-- Created with Inkscape (http://www.inkscape.org/) -->

<svg
   width="163mm"
   height="98mm"
   viewBox="0 0 163 98"
   version="1.1"
   id="svg1"
   inkscape:version="1.3.2 (091e20e, 2023-11-25)"
   sodipodi:docname="TSHIRT LOGO.svg"
   inkscape:export-filename="TSHIRT LOGO.tiff"
   inkscape:export-xdpi="96"
   inkscape:export-ydpi="96"
   xmlns:inkscape="http://www.inkscape.org/namespaces/inkscape"
   xmlns:sodipodi="http://sodipodi.sourceforge.net/DTD/sodipodi-0.dtd"
   xmlns="http://www.w3.org/2000/svg"
   xmlns:svg="http://www.w3.org/2000/svg">
  <sodipodi:namedview
     id="namedview1"
     pagecolor="#ffffff"
     bordercolor="#000000"
     borderopacity="0.25"
     inkscape:showpageshadow="2"
     inkscape:pageopacity="0.0"
     inkscape:pagecheckerboard="0"
     inkscape:deskcolor="#d1d1d1"
     inkscape:document-units="mm"
     inkscape:zoom="0.51331911"
     inkscape:cx="156.82253"
     inkscape:cy="321.43748"
     inkscape:window-width="1512"
     inkscape:window-height="945"
     inkscape:window-x="0"
     inkscape:window-y="37"
     inkscape:window-maximized="0"
     inkscape:current-layer="layer1" />
  <defs
     id="defs1">
    <inkscape:path-effect
       effect="lattice2"
       gridpoint0="33.564165,29.655301"
       gridpoint1="222.82448,29.206263"
       gridpoint2="32.046077,68.245742"
       gridpoint3="224.34257,67.347664"
       gridpoint4="80.120201,33.247613"
       gridpoint5="174.75036,33.247613"
       gridpoint6="80.120201,51.6313"
       gridpoint7="174.75036,50.733223"
       gridpoint8x9="127.43528,33.247613"
       gridpoint10x11="127.43528,51.631301"
       gridpoint12="32.805121,39.415171"
       gridpoint13="222.06544,39.415171"
       gridpoint14="32.805121,51.750288"
       gridpoint15="222.06544,51.750288"
       gridpoint16="80.120201,39.415171"
       gridpoint17="174.75036,39.415171"
       gridpoint18="80.120201,51.750288"
       gridpoint19="173.99132,50.403171"
       gridpoint20x21="127.43528,39.415171"
       gridpoint22x23="128.19432,51.750288"
       gridpoint24x26="32.805121,45.582729"
       gridpoint25x27="222.06544,45.582729"
       gridpoint28x30="80.120201,45.582729"
       gridpoint29x31="174.75036,45.582729"
       gridpoint32x33x34x35="127.43528,45.582729"
       id="path-effect1"
       is_visible="true"
       lpeversion="1"
       horizontal_mirror="false"
       vertical_mirror="false"
       perimetral="false"
       live_update="true" />
  </defs>
  <g
     inkscape:label="Layer 1"
     inkscape:groupmode="layer"
     id="layer1">
    <path
       d="m 45.572841,30.366252 c 0.475179,7.403706 0.862311,13.055448 1.454922,21.745241 0.488749,7.166804 0.857036,12.838723 0.857036,12.838723 -2.135334,0.382745 -6.404297,1.105873 -6.404297,1.105873 -0.02116,-2.123235 -0.0672,-6.37456 -0.0672,-6.37456 -0.747158,0.102348 -2.240583,0.30078 -2.240583,0.30078 -0.205569,2.178424 -0.619141,6.544855 -0.619141,6.544855 -2.159628,0.338131 -6.476909,0.940821 -6.476909,0.940821 1.545498,-12.48818 4.587391,-37.051303 4.587391,-37.051303 0.316799,-0.0017 8.591978,-0.04873 8.908777,-0.05043 z m -4.101786,23.000875 c -0.16618,-4.003641 -0.299394,-9.003161 -0.393017,-14.950649 -0.877612,6.873924 -1.462014,11.979531 -1.738522,15.178448 0.710312,-0.07434 1.420904,-0.150338 2.131539,-0.227799 z m 22.43144,-23.114325 c -0.182281,6.012499 -0.346047,13.851938 -0.528328,19.864437 -0.195148,6.627038 -0.449447,12.01709 -0.449447,12.01709 -1.828448,0.348038 -5.484176,1.043638 -5.484176,1.043638 -0.849899,-4.756919 -2.703031,-14.639634 -2.703031,-14.639634 -0.159499,5.068512 -0.551699,15.253708 -0.551699,15.253708 -1.744101,0.326962 -5.231075,0.965427 -5.231075,0.965427 0.466524,-11.507623 1.196849,-34.418768 1.196849,-34.418768 1.716766,-0.01048 5.149271,-0.03182 5.149271,-0.03182 0.984627,5.018996 3.022572,14.733467 3.022572,14.733467 0.14113,-4.917798 0.429783,-14.755103 0.429783,-14.755103 1.000969,-0.0063 4.148312,-0.02615 5.149281,-0.03244 z M 80.33396,40.705343 c -2.069972,0.145466 -6.209381,0.448663 -6.209381,0.448663 0.01606,-0.899896 0.04792,-2.69895 0.04792,-2.69895 0.03043,-1.700536 -0.0078,-2.765912 -0.116512,-3.190546 -0.10883,-0.42492 -0.383246,-0.631391 -0.823313,-0.616703 -0.381509,0.01273 -0.644559,0.206818 -0.78944,0.584091 -0.144804,0.377073 -0.233348,1.335538 -0.263278,2.873302 -0.09377,4.817748 -0.33288,14.492396 -0.33288,14.492396 -0.04409,1.367069 -0.0095,2.261406 0.112645,2.680622 0.122469,0.406202 0.391084,0.5751 0.80767,0.508418 0.455878,-0.07297 0.773524,-0.366307 0.950648,-0.876625 0.186867,-0.511403 0.30711,-1.470459 0.350843,-2.867299 0.03718,-1.187597 0.09846,-3.551212 0.09846,-3.551212 -0.420322,0.04991 -1.260745,0.150322 -1.260745,0.150322 0.03824,-1.524289 0.10136,-4.561 0.10136,-4.561 2.430162,-0.223884 7.288042,-0.653974 7.288042,-0.653974 -0.04175,2.786576 -0.103194,6.190389 -0.227715,9.681492 -0.116279,3.260052 -0.274861,5.930491 -0.274861,5.930491 -1.313036,0.225647 -3.938388,0.69074 -3.938388,0.69074 -0.152854,-0.690089 -0.467759,-2.068073 -0.467759,-2.068073 -0.47067,1.004745 -1.049117,1.809863 -1.728761,2.407918 -0.669174,0.583745 -1.445761,0.962241 -2.327014,1.127807 -1.050501,0.197364 -2.016949,0.05795 -2.905821,-0.430693 -0.878195,-0.503361 -1.532506,-1.209036 -1.966042,-2.115253 -0.433358,-0.905845 -0.689562,-1.892868 -0.768735,-2.954055 -0.07868,-1.073998 -0.08105,-2.697549 -0.01685,-4.860053 0.09259,-3.118616 0.2399,-9.313984 0.2399,-9.313984 0.07034,-2.994125 0.243525,-5.164454 0.522691,-6.529065 0.278299,-1.360367 1.00953,-2.615074 2.191272,-3.738264 1.193714,-1.137836 2.702949,-1.69016 4.537309,-1.694512 1.802465,-0.0043 3.287725,0.463476 4.454986,1.367555 1.168144,0.904763 1.923465,1.967831 2.263738,3.20023 0.339837,1.218275 0.496706,3.002546 0.466209,5.340101 0.0062,-0.475416 -0.0224,1.711529 -0.0162,1.236113 z M 82.890459,30.13658 c 1.4534,-0.0084 4.359326,-0.02488 4.359326,-0.02488 2.902217,-0.01625 4.872632,0.103837 5.888668,0.35002 1.029644,0.247047 1.858309,0.889431 2.492867,1.909832 0.643311,1.007642 0.963992,2.623925 0.96252,4.835877 -0.0013,2.024053 -0.232031,3.394998 -0.695938,4.12404 -0.463376,0.728206 -1.376935,1.214911 -2.736251,1.458161 1.228133,0.24752 2.054214,0.636512 2.473413,1.16602 0.419748,0.530202 0.676471,1.02755 0.770012,1.495994 0.100578,0.443779 0.148479,1.756864 0.0945,3.895566 -0.05927,2.348385 -0.315459,7.190353 -0.315459,7.190353 -1.936921,0.251972 -5.809874,0.806238 -5.809874,0.806238 0.199616,-3.157272 0.369618,-9.242447 0.369618,-9.242447 0.02983,-1.456293 -0.06479,-2.346381 -0.2665,-2.671679 -0.192511,-0.327244 -0.719039,-0.454368 -1.576815,-0.376331 -0.02876,2.252798 -0.07864,4.945091 -0.188174,7.782466 -0.101513,2.629708 -0.240195,4.792639 -0.240195,4.792639 -2.085782,0.317394 -6.256347,0.999905 -6.256347,0.999905 0.58415,-9.823041 0.457143,-19.001217 0.67463,-28.491769 z m 6.092404,4.643226 c -0.01906,2.016747 -0.04287,6.037859 -0.04287,6.037859 0.697932,-0.04668 1.18568,-0.184511 1.46186,-0.412387 0.286523,-0.23996 0.432134,-0.950464 0.437901,-2.132458 0.0024,-0.491896 0.0077,-1.475851 0.0077,-1.475851 0.0048,-0.851217 -0.12828,-1.405972 -0.400184,-1.663347 -0.261913,-0.257498 -0.750397,-0.376524 -1.46437,-0.353816 z m 23.164687,-4.78771 c -0.92929,3.203486 -1.69943,6.002478 -2.7651,9.850221 -0.91098,3.289238 -1.68937,6.026771 -1.68937,6.026771 -0.0259,3.040025 -0.32179,9.420207 -0.32179,9.420207 -1.93156,0.177788 -5.79387,0.593326 -5.79387,0.593326 0.21661,-3.314821 0.34721,-9.597129 0.34721,-9.597129 -0.6976,-2.683345 -1.80659,-6.667957 -2.71469,-10.049901 -0.906755,-3.376948 -1.588496,-6.178868 -1.588496,-6.178868 1.887459,-0.0094 5.661236,-0.02706 5.661236,-0.02706 0.86981,5.270788 1.3641,7.890396 1.50241,9.880046 0.32083,-2.612107 0.87626,-6.026212 1.70124,-9.894325 -0.027,1.17e-4 5.68821,-0.02341 5.66122,-0.02329 z m 6.33412,-0.02298 c 1.45338,-0.0049 4.35926,-0.01385 4.35926,-0.01385 2.9056,-0.0087 4.87178,0.101444 5.89643,0.327448 1.03537,0.226193 1.87632,0.810562 2.53253,1.74288 0.66427,0.920272 1.01775,2.392847 1.06144,4.388118 0.04,1.825212 -0.16229,3.049936 -0.60998,3.680124 -0.44798,0.630599 -1.34724,1.011066 -2.69845,1.148026 1.23029,0.291857 2.06153,0.69372 2.49055,1.200508 0.42933,0.507168 0.69543,0.978325 0.79825,1.412059 0.10939,0.412062 0.18396,1.610982 0.1744,3.584941 -0.0105,2.17023 -0.16422,6.766873 -0.16422,6.766873 -1.93557,-0.01375 -5.80585,0.02805 -5.80585,0.02805 0.15396,-2.955533 0.20736,-8.428784 0.20736,-8.428784 4.9e-4,-1.297632 -0.11298,-2.091227 -0.32085,-2.391578 -0.199,-0.301849 -0.72648,-0.446724 -1.58033,-0.430813 0.0199,1.970638 0.0252,4.342546 -0.0368,6.904011 -0.0574,2.371936 -0.17016,4.386418 -0.17016,4.386418 -2.08438,0.05115 -6.25229,0.232763 -6.25229,0.232763 0.52828,-8.89871 0.0892,-16.372931 0.11871,-24.537193 z m 6.19205,4.080145 c 0.0257,1.755929 0.0938,5.244543 0.0938,5.244543 0.69584,-0.0098 1.17908,-0.107655 1.44992,-0.294837 0.28064,-0.197111 0.41023,-0.812916 0.38972,-1.84798 -0.009,-0.430647 -0.0251,-1.292559 -0.0251,-1.292559 -0.0141,-0.746155 -0.15918,-1.236549 -0.43666,-1.468378 -0.26768,-0.231879 -0.7582,-0.346018 -1.4717,-0.340789 z m 24.34108,10.079711 c 0.046,2.474604 -0.002,4.287298 -0.11923,5.371985 -0.10654,1.07042 -0.46576,2.054677 -1.07854,2.944134 -0.60353,0.890985 -1.42258,1.564514 -2.45527,2.012803 -1.03386,0.448807 -2.22811,0.63758 -3.58692,0.573807 -1.2891,-0.0605 -2.43662,-0.34285 -3.44981,-0.842735 -1.00259,-0.510559 -1.79656,-1.233707 -2.39408,-2.160201 -0.59701,-0.925724 -0.94638,-1.906703 -1.05254,-2.944184 -0.10539,-1.030018 -0.15321,-2.840698 -0.18341,-5.297872 -0.0168,-1.366452 -0.0723,-4.053661 -0.0723,-4.053661 -0.0521,-2.378753 -0.0405,-4.000609 0.0487,-5.002604 0.0968,-0.989645 0.43248,-1.897116 1.00643,-2.724023 0.58358,-0.826709 1.37754,-1.469431 2.378,-1.921318 1.00084,-0.452057 2.16886,-0.682864 3.50457,-0.686033 1.2682,-0.003 2.4041,0.212398 3.4149,0.648284 1.01988,0.425501 1.84356,1.070367 2.47515,1.929117 0.63129,0.858358 1.01835,1.788449 1.15989,2.785043 0.13917,0.979937 0.24796,2.748261 0.31062,5.207719 0.035,1.374847 0.0678,2.756817 0.0938,4.159739 z m -6.36578,-8.039536 c -0.0273,-1.103343 -0.1066,-1.811642 -0.24019,-2.117059 -0.12415,-0.315464 -0.37633,-0.47448 -0.75738,-0.47652 -0.32234,-0.0017 -0.56885,0.124962 -0.73932,0.378993 -0.16092,0.244287 -0.22836,0.978892 -0.19885,2.195278 0.0448,1.845159 0.11797,4.577822 0.15949,6.916975 0.0413,2.328513 0.0461,4.268928 0.0461,4.268928 0.004,1.447021 0.0475,2.361665 0.15314,2.716042 0.11483,0.352459 0.37811,0.537196 0.792,0.552506 0.42355,0.01567 0.69667,-0.176076 0.81804,-0.574082 0.1212,-0.397481 0.18761,-1.35368 0.18049,-2.819982 -0.0185,-3.814438 -0.12375,-7.40813 -0.21356,-11.041079 z m 22.79726,9.03993 c 0.0627,2.645285 0.0396,4.583068 -0.0594,5.732631 -0.0891,1.136906 -0.42835,2.169663 -1.01984,3.084914 -0.58231,0.91747 -1.38174,1.589082 -2.40044,2.00644 -1.01988,0.417848 -2.20621,0.547239 -3.56529,0.397582 -1.28896,-0.141937 -2.44358,-0.511565 -3.46854,-1.099557 -1.0146,-0.598509 -1.82562,-1.405725 -2.44155,-2.408348 -0.61551,-1.001931 -0.98206,-2.042215 -1.10384,-3.124817 -0.12125,-1.077834 -0.19331,-2.951822 -0.24252,-5.494653 -0.0273,-1.412693 -0.0965,-4.187838 -0.0965,-4.187838 -0.0631,-2.448783 -0.0574,-4.13596 0.0261,-5.162679 0.0917,-1.020603 0.42187,-1.954724 0.98984,-2.808062 0.57747,-0.852873 1.36612,-1.518847 2.36221,-1.988743 0.99641,-0.470039 2.1624,-0.712823 3.49793,-0.715991 1.26836,-0.003 2.40622,0.224068 3.42122,0.688304 1.02389,0.453181 1.85278,1.141756 2.48985,2.061945 0.63672,0.919668 1.02802,1.918128 1.17309,2.986422 0.14399,1.060346 0.25464,2.935146 0.32489,5.579571 0.0391,1.472366 0.0773,2.951973 0.11287,4.452879 z m -6.39243,-8.70848 c -0.031,-1.164601 -0.11344,-1.912728 -0.24845,-2.236448 -0.12562,-0.33421 -0.37853,-0.504301 -0.75951,-0.510445 -0.32227,-0.0052 -0.56809,0.125522 -0.73725,0.390399 -0.15968,0.254779 -0.22353,1.025309 -0.18961,2.302462 0.0515,1.937601 0.13182,4.806943 0.18795,7.26379 0.0559,2.445586 0.0847,4.4847 0.0847,4.4847 0.0217,1.519479 0.0817,2.485805 0.19298,2.863165 0.12073,0.376777 0.38715,0.585548 0.80054,0.623659 0.4232,0.03902 0.69205,-0.148826 0.80632,-0.562661 0.11384,-0.412231 0.16373,-1.418536 0.13901,-2.966641 -0.0643,-4.025221 -0.17459,-7.817926 -0.27671,-11.65198 z m 21.5814,2.116376 c -1.91166,-0.104368 -5.7331,-0.300724 -5.7331,-0.300724 -0.0179,-0.672242 -0.0537,-2.018473 -0.0537,-2.018473 -0.0251,-0.943469 -0.11427,-1.54961 -0.26762,-1.812893 -0.15344,-0.263437 -0.40083,-0.398918 -0.74275,-0.40728 -0.37109,-0.0091 -0.64983,0.158283 -0.83606,0.49903 -0.17649,0.341073 -0.25553,0.861254 -0.23698,1.560281 0.0238,0.898274 0.14938,1.577698 0.37652,2.042532 0.21774,0.465179 0.81322,1.04145 1.78895,1.748873 2.79492,2.033971 4.57302,3.783376 5.31935,5.099391 0.74825,1.319395 1.16066,3.390042 1.24279,6.292766 0.0597,2.111424 -0.0945,3.685126 -0.4686,4.659918 -0.36451,0.977108 -1.10783,1.737184 -2.23614,2.269686 -1.13051,0.520504 -2.45494,0.653271 -3.98298,0.41052 -1.67571,-0.26621 -3.112,-0.892435 -4.31198,-1.853485 -1.18899,-0.958744 -1.97187,-2.045965 -2.35486,-3.259886 -0.383,-1.213965 -0.5922,-2.864393 -0.63544,-4.90585 -0.0126,-0.594609 -0.0391,-1.770573 -0.0391,-1.770573 1.91497,0.173116 5.74417,0.552503 5.74417,0.552503 0.0281,1.123719 0.0827,3.413591 0.0827,3.413591 0.025,1.066716 0.11912,1.774724 0.28356,2.106434 0.17423,0.332898 0.46793,0.528496 0.88124,0.584386 0.41349,0.05591 0.71339,-0.101922 0.90068,-0.47371 0.19692,-0.370067 0.2856,-0.946003 0.26638,-1.718679 -0.0422,-1.696719 -0.26148,-2.802074 -0.65635,-3.350809 -0.40105,-0.544863 -1.39511,-1.503074 -2.9571,-2.787473 -1.57655,-1.307404 -2.59375,-2.180197 -3.11644,-2.737297 -0.51191,-0.545608 -0.9463,-1.27553 -1.30233,-2.185704 -0.34633,-0.909802 -0.53839,-2.050972 -0.5753,-3.432664 -0.0532,-1.991829 0.13863,-3.458998 0.57436,-4.393601 0.44499,-0.933388 1.17939,-1.671921 2.20003,-2.208407 1.02041,-0.547731 2.26215,-0.832938 3.72412,-0.836406 1.60052,-0.0038 2.9649,0.299424 4.10485,0.925285 1.14821,0.625071 1.91564,1.422193 2.30278,2.379924 0.39636,0.945575 0.625,2.551787 0.6847,4.793966 0.002,0.06891 0.0278,1.045915 0.0297,1.114828 z m 14.61571,-8.598682 c 0.0675,2.115802 0.18765,6.282914 0.18765,6.282914 -1.22242,-0.04982 -3.66612,-0.148366 -3.66612,-0.148366 0.11207,4.040458 0.26864,10.090112 0.43467,15.278866 0.16589,5.184135 0.35348,9.650925 0.35348,9.650925 -2.08406,-0.384706 -6.25045,-1.135275 -6.25045,-1.135275 -0.18027,-5.008413 -0.32377,-9.776704 -0.47463,-15.285954 -0.13316,-4.86289 -0.23526,-8.751183 -0.23526,-8.751183 -1.21693,-0.04667 -3.64981,-0.137412 -3.64981,-0.137412 -0.0511,-1.905504 -0.15758,-5.774104 -0.15758,-5.774104 1.12617,0.0014 12.33188,0.01816 13.45805,0.01959 z m 1.40433,0.0022 c 3.42372,0.0054 10.26917,0.01591 10.26917,0.01591 0.0794,2.262303 0.22255,6.743607 0.22255,6.743607 -1.37523,-0.05556 -4.12411,-0.167948 -4.12411,-0.167948 0.0622,2.066347 0.18301,6.19017 0.18301,6.19017 1.29048,0.103027 3.87236,0.30793 3.87236,0.30793 0.0654,2.12093 0.20308,6.380282 0.20308,6.380282 -1.296,-0.151145 -3.88461,-0.455639 -3.88461,-0.455639 0.0777,2.414608 0.25792,7.318841 0.25792,7.318841 1.52576,0.239574 4.57963,0.71414 4.57963,0.71414 0.0916,2.298362 0.30711,6.979144 0.30711,6.979144 -3.61619,-0.655202 -10.843,-2.008814 -10.843,-2.008814 -0.51527,-11.338647 -0.69886,-21.358786 -1.04311,-32.017623 z m 12.44883,0.01906 c 1.45339,0.0021 4.35932,0.0058 4.35932,0.0058 2.90955,0.0036 4.87426,0.172855 5.91515,0.518784 1.04753,0.344923 1.92013,1.228562 2.62136,2.66427 0.70969,1.419361 1.12864,3.69808 1.25287,6.819432 0.11347,2.850837 -0.0418,4.748718 -0.4681,5.691225 -0.42652,0.943081 -1.31776,1.450696 -2.67521,1.525622 1.25305,0.566442 2.10814,1.259352 2.56525,2.079468 0.45675,0.819473 0.74847,1.567966 0.87407,2.240579 0.1349,0.658362 0.26131,2.465436 0.3789,5.419865 0.12811,3.218659 0.38424,9.654047 0.38424,9.654047 -1.93867,-0.278882 -5.81362,-0.891517 -5.81362,-0.891517 -0.18135,-4.01838 -0.49394,-11.951788 -0.49394,-11.951788 -0.0731,-1.912744 -0.22032,-3.103868 -0.44502,-3.580311 -0.21492,-0.475658 -0.7517,-0.755253 -1.61173,-0.84484 0.19079,5.302379 0.64801,16.064133 0.64801,16.064133 -2.0863,-0.347897 -6.25649,-1.083787 -6.25649,-1.083787 -0.57359,-11.848666 -0.8267,-22.895664 -1.23506,-34.330999 z m 6.37762,6.046674 c 0.0922,2.610314 0.27252,7.82259 0.27252,7.82259 0.69923,0.05249 1.18144,-0.04938 1.44748,-0.307242 0.27519,-0.271609 0.3846,-1.190523 0.32852,-2.756859 -0.0233,-0.65126 -0.07,-1.95359 -0.07,-1.95359 -0.0405,-1.12733 -0.20449,-1.871959 -0.49127,-2.23202 -0.27729,-0.360125 -0.77248,-0.5499 -1.48721,-0.572879 z"
       id="text1"
       style="font-weight:bold;font-size:29.9494px;font-family:Impact;-inkscape-font-specification:'Impact Bold';opacity:0.97;fill:#000000;stroke:#666666;stroke-width:0.467961"
       transform="matrix(0.79642002,0,0,1.3462483,-19.90941,-14.515304)"
       aria-label="ANGRY ROOSTER"
       inkscape:path-effect="#path-effect1"
       inkscape:original-d="m 44.840451,33.744819 3.52432,23.67582 h -6.302828 l -0.307099,-4.255506 h -2.208183 l -0.365593,4.255506 H 32.805121 L 35.9346,33.744819 Z M 41.57936,48.968123 Q 41.1114,44.946597 40.643441,39.03861 39.707522,45.824021 39.473542,48.968123 Z M 63.163985,33.744819 v 23.67582 H 57.767829 L 54.565232,46.657573 v 10.763066 h -5.147553 v -23.67582 h 5.147553 l 3.4512,10.6607 v -10.6607 z m 16.597933,8.715744 h -6.15659 v -2.149689 q 0,-2.032698 -0.175485,-2.544529 -0.175485,-0.51183 -0.833552,-0.51183 -0.570326,0 -0.775058,0.438712 -0.204732,0.438712 -0.204732,2.252054 V 51.30792 q 0,1.593986 0.204732,2.105817 0.204732,0.497207 0.818929,0.497207 0.672691,0 0.906671,-0.570326 0.248603,-0.570325 0.248603,-2.222807 v -2.807756 h -1.243017 v -3.597438 h 7.209499 V 57.420639 H 75.88663 l -0.570326,-1.696353 q -0.62882,1.09678 -1.593986,1.652482 -0.950543,0.541078 -2.252055,0.541078 -1.550115,0 -2.910122,-0.74581 Q 67.214758,56.411602 66.512819,55.300198 65.81088,54.188795 65.635395,52.975025 65.45991,51.746632 65.45991,49.304469 v -7.034015 q 0,-3.392705 0.365593,-4.928197 0.365594,-1.535492 2.091194,-2.807756 1.740224,-1.286888 4.489485,-1.286888 2.70539,0 4.489485,1.111403 1.784095,1.111404 2.325173,2.646895 0.541078,1.520868 0.541078,4.430991 z m 2.383666,-8.715744 h 4.357872 q 4.357871,0 5.893363,0.336346 1.550115,0.336346 2.515282,1.7256 0.97979,1.374631 0.97979,4.401743 0,2.763885 -0.687316,3.714428 -0.687315,0.950542 -2.70539,1.140651 1.827966,0.453335 2.456787,1.213769 0.62882,0.760434 0.775057,1.403879 0.160862,0.62882 0.160862,3.495071 v 6.244333 h -5.717879 v -7.867567 q 0,-1.901085 -0.307098,-2.354421 -0.292475,-0.453335 -1.56474,-0.453335 v 10.675323 h -6.15659 z m 6.15659,4.050774 v 5.264543 q 1.038285,0 1.44775,-0.277851 0.424088,-0.292475 0.424088,-1.857214 v -1.301512 q 0,-1.126027 -0.409465,-1.476997 -0.39484,-0.350969 -1.462373,-0.350969 z m 23.090866,-4.050774 -4.48948,15.106314 v 8.569506 H 101.2003 V 48.851133 L 96.87168,33.744819 h 5.65938 q 1.33076,6.917025 1.49162,9.315317 0.51183,-3.787546 1.71098,-9.315317 z m 6.33208,0 h 4.35787 q 4.35787,0 5.89337,0.336346 1.55011,0.336346 2.51528,1.7256 0.97979,1.374631 0.97979,4.401743 0,2.763885 -0.68732,3.714428 -0.68731,0.950542 -2.70539,1.140651 1.82797,0.453335 2.45679,1.213769 0.62882,0.760434 0.77506,1.403879 0.16086,0.62882 0.16086,3.495071 v 6.244333 h -5.71788 v -7.867567 q 0,-1.901085 -0.3071,-2.354421 -0.29247,-0.453335 -1.56474,-0.453335 v 10.675323 h -6.15659 z m 6.15659,4.050774 v 5.264543 q 1.03829,0 1.44775,-0.277851 0.42409,-0.292475 0.42409,-1.857214 v -1.301512 q 0,-1.126027 -0.40947,-1.476997 -0.39484,-0.350969 -1.46237,-0.350969 z m 24.04141,9.812523 q 0,3.56819 -0.17548,5.059811 -0.16086,1.476996 -1.05291,2.70539 -0.87742,1.228393 -2.38367,1.886461 -1.50624,0.658068 -3.50969,0.658068 -1.90109,0 -3.42196,-0.614197 -1.50624,-0.62882 -2.42754,-1.871837 -0.92129,-1.243017 -1.09678,-2.70539 -0.17548,-1.462373 -0.17548,-5.118306 v -4.050773 q 0,-3.568191 0.16086,-5.045187 0.17549,-1.491621 1.05291,-2.720014 0.89205,-1.228394 2.39829,-1.886462 1.50625,-0.658067 3.5097,-0.658067 1.90108,0 3.40733,0.62882 1.52086,0.614197 2.44216,1.857214 0.92129,1.243017 1.09678,2.70539 0.17548,1.462373 0.17548,5.118306 z m -6.15659,-7.779825 q 0,-1.652481 -0.19011,-2.105817 -0.17548,-0.467959 -0.74581,-0.467959 -0.48258,0 -0.74581,0.380217 -0.2486,0.365593 -0.2486,2.193559 v 11.055541 q 0,2.061946 0.16086,2.544529 0.17549,0.482583 0.78968,0.482583 0.62882,0 0.80431,-0.555702 0.17548,-0.555702 0.17548,-2.646895 z m 22.52055,7.779825 q 0,3.56819 -0.17549,5.059811 -0.16086,1.476996 -1.05291,2.70539 -0.87742,1.228393 -2.38367,1.886461 -1.50624,0.658068 -3.50969,0.658068 -1.90109,0 -3.42195,-0.614197 -1.50625,-0.62882 -2.42754,-1.871837 -0.9213,-1.243017 -1.09678,-2.70539 -0.17549,-1.462373 -0.17549,-5.118306 v -4.050773 q 0,-3.568191 0.16086,-5.045187 0.17549,-1.491621 1.05291,-2.720014 0.89205,-1.228394 2.39829,-1.886462 1.50625,-0.658067 3.5097,-0.658067 1.90108,0 3.40733,0.62882 1.52087,0.614197 2.44216,1.857214 0.9213,1.243017 1.09678,2.70539 0.17549,1.462373 0.17549,5.118306 z m -6.15659,-7.779825 q 0,-1.652481 -0.19011,-2.105817 -0.17549,-0.467959 -0.74581,-0.467959 -0.48259,0 -0.74581,0.380217 -0.24861,0.365593 -0.24861,2.193559 v 11.055541 q 0,2.061946 0.16086,2.544529 0.17549,0.482583 0.78969,0.482583 0.62882,0 0.8043,-0.555702 0.17549,-0.555702 0.17549,-2.646895 z m 21.49689,1.082156 H 173.9095 V 39.1556 q 0,-1.228394 -0.21936,-1.564739 -0.21936,-0.336346 -0.73119,-0.336346 -0.5557,0 -0.84817,0.453335 -0.27785,0.453336 -0.27785,1.374631 0,1.184522 0.32172,1.784095 0.3071,0.599573 1.74022,1.447749 4.10927,2.442163 5.1768,4.006903 1.06754,1.564739 1.06754,5.045187 0,2.529905 -0.59958,3.729051 -0.58495,1.199146 -2.2813,2.018075 -1.69635,0.804305 -3.94841,0.804305 -2.47141,0 -4.22625,-0.935919 -1.74023,-0.935919 -2.28131,-2.383668 -0.54107,-1.447749 -0.54107,-4.109268 v -1.550116 h 5.71787 v 2.880875 q 0,1.33076 0.23398,1.710977 0.24861,0.380217 0.8628,0.380217 0.6142,0 0.90668,-0.482583 0.30709,-0.482583 0.30709,-1.433126 0,-2.091193 -0.57032,-2.734638 -0.58495,-0.643444 -2.88088,-2.149688 -2.29592,-1.520868 -3.04173,-2.208183 -0.74581,-0.687316 -1.24302,-1.901085 -0.48258,-1.21377 -0.48258,-3.100231 0,-2.720014 0.68731,-3.977655 0.70194,-1.257641 2.25206,-1.95958 1.55011,-0.716562 3.74367,-0.716562 2.39829,0 4.08002,0.775057 1.69636,0.775058 2.23743,1.95958 0.55571,1.169899 0.55571,3.992279 z m 14.84308,-7.165628 v 4.738089 h -3.65594 v 18.937731 h -6.15659 V 38.482908 h -3.6413 v -4.738089 z m 1.40388,0 h 10.26586 v 4.738089 h -4.10927 v 4.489485 h 3.84605 v 4.504109 h -3.84605 v 5.206048 h 4.51874 v 4.738089 h -10.67533 z m 12.4448,0 h 4.35787 q 4.35787,0 5.89336,0.336346 1.55012,0.336346 2.51528,1.7256 0.97979,1.374631 0.97979,4.401743 0,2.763885 -0.68731,3.714428 -0.68732,0.950542 -2.70539,1.140651 1.82796,0.453335 2.45679,1.213769 0.62882,0.760434 0.77505,1.403879 0.16086,0.62882 0.16086,3.495071 v 6.244333 h -5.71787 v -7.867567 q 0,-1.901085 -0.3071,-2.354421 -0.29248,-0.453335 -1.56474,-0.453335 v 10.675323 h -6.15659 z m 6.15659,4.050774 v 5.264543 q 1.03828,0 1.44775,-0.277851 0.42409,-0.292475 0.42409,-1.857214 v -1.301512 q 0,-1.126027 -0.40947,-1.476997 -0.39484,-0.350969 -1.46237,-0.350969 z" />
    <text
       xml:space="preserve"
       style="font-style:normal;font-variant:normal;font-weight:normal;font-stretch:normal;font-size:9.32238px;font-family:impact;-inkscape-font-specification:impact;opacity:0.97;fill:#4d4d4d;stroke-width:0.145663"
       x="59.243046"
       y="71.165916"
       id="text2"
       transform="scale(1.0207917,0.97963178)"><tspan
         sodipodi:role="line"
         id="tspan1"
         style="font-style:normal;font-variant:normal;font-weight:normal;font-stretch:normal;font-family:impact;-inkscape-font-specification:impact;stroke-width:0.145663"
         x="59.243046"
         y="71.165916">POWER CLUB.</tspan></text>
  </g>
</svg>
